<mxfile host="app.diagrams.net" modified="2021-11-08T18:53:39.889Z" agent="5.0 (Windows NT 10.0; Win64; x64) AppleWebKit/537.36 (KHTML, like Gecko) Chrome/95.0.4638.54 Safari/537.36 Edg/95.0.1020.40" etag="gK_m1YS_lb51FKCdyu8z" version="15.7.0" type="github">
  <diagram id="TWpJNE2ipJKSSFGkS71t" name="Page-1">
    <mxGraphModel dx="2800" dy="1562" grid="1" gridSize="10" guides="1" tooltips="1" connect="1" arrows="1" fold="1" page="0" pageScale="1" pageWidth="850" pageHeight="1100" math="0" shadow="0">
      <root>
        <mxCell id="0" />
        <mxCell id="1" parent="0" />
        <mxCell id="pqIi2-kwize-v3Tn6Eei-1" style="edgeStyle=none;curved=1;rounded=0;sketch=1;hachureGap=4;orthogonalLoop=1;jettySize=auto;html=1;fontFamily=Verdana;fontSize=16;endArrow=open;startSize=14;endSize=14;sourcePerimeterSpacing=8;targetPerimeterSpacing=8;" parent="1" source="pqIi2-kwize-v3Tn6Eei-2" target="pqIi2-kwize-v3Tn6Eei-4" edge="1">
          <mxGeometry relative="1" as="geometry" />
        </mxCell>
        <mxCell id="pqIi2-kwize-v3Tn6Eei-2" value="end user" style="rounded=1;whiteSpace=wrap;html=1;sketch=1;hachureGap=4;pointerEvents=0;fontFamily=Verdana;fontSize=20;" parent="1" vertex="1">
          <mxGeometry x="-70" y="-110" width="120" height="60" as="geometry" />
        </mxCell>
        <mxCell id="pqIi2-kwize-v3Tn6Eei-3" style="edgeStyle=none;curved=1;rounded=0;sketch=1;hachureGap=4;orthogonalLoop=1;jettySize=auto;html=1;fontFamily=Verdana;fontSize=16;endArrow=open;startSize=14;endSize=14;sourcePerimeterSpacing=8;targetPerimeterSpacing=8;" parent="1" source="pqIi2-kwize-v3Tn6Eei-4" target="pqIi2-kwize-v3Tn6Eei-5" edge="1">
          <mxGeometry relative="1" as="geometry" />
        </mxCell>
        <mxCell id="pqIi2-kwize-v3Tn6Eei-4" value="nike ui" style="rounded=1;whiteSpace=wrap;html=1;sketch=1;hachureGap=4;pointerEvents=0;fontFamily=Verdana;fontSize=20;" parent="1" vertex="1">
          <mxGeometry x="-70" y="20" width="120" height="60" as="geometry" />
        </mxCell>
        <mxCell id="pqIi2-kwize-v3Tn6Eei-5" value="pay with simplex" style="rounded=1;whiteSpace=wrap;html=1;sketch=1;hachureGap=4;pointerEvents=0;fontFamily=Verdana;fontSize=20;" parent="1" vertex="1">
          <mxGeometry x="-270" y="20" width="120" height="60" as="geometry" />
        </mxCell>
        <mxCell id="pqIi2-kwize-v3Tn6Eei-6" value="{&lt;br&gt;cardNumber: string,&lt;br&gt;cvc: number,&lt;br&gt;date: datetime/string,&lt;br&gt;timestamp: datetime,&lt;br&gt;tenantId: id,&lt;br&gt;transactionId: id&lt;br&gt;}" style="text;html=1;align=center;verticalAlign=middle;resizable=0;points=[];autosize=1;strokeColor=none;fillColor=none;sketch=1;hachureGap=4;pointerEvents=0;fontFamily=Verdana;fontSize=20;" parent="1" vertex="1">
          <mxGeometry x="-415" y="-160" width="240" height="200" as="geometry" />
        </mxCell>
        <mxCell id="pqIi2-kwize-v3Tn6Eei-7" value="API Gateway&lt;br&gt;(Nginx)" style="rhombus;whiteSpace=wrap;html=1;sketch=1;hachureGap=4;pointerEvents=0;fontFamily=Verdana;fontSize=20;" parent="1" vertex="1">
          <mxGeometry x="-105" y="200" width="190" height="130" as="geometry" />
        </mxCell>
        <mxCell id="pqIi2-kwize-v3Tn6Eei-8" style="edgeStyle=none;curved=1;rounded=0;sketch=1;hachureGap=4;orthogonalLoop=1;jettySize=auto;html=1;entryX=0;entryY=0;entryDx=0;entryDy=27.5;entryPerimeter=0;fontFamily=Verdana;fontSize=16;endArrow=open;startSize=14;endSize=14;sourcePerimeterSpacing=8;targetPerimeterSpacing=8;exitX=1;exitY=1;exitDx=0;exitDy=0;" parent="1" source="pqIi2-kwize-v3Tn6Eei-9" target="pqIi2-kwize-v3Tn6Eei-12" edge="1">
          <mxGeometry relative="1" as="geometry">
            <mxPoint x="7.5" y="710" as="sourcePoint" />
          </mxGeometry>
        </mxCell>
        <mxCell id="pqIi2-kwize-v3Tn6Eei-9" value="validation service&lt;span style=&quot;color: rgba(0 , 0 , 0 , 0) ; font-family: monospace ; font-size: 0px&quot;&gt;%3CmxGraphModel%3E%3Croot%3E%3CmxCell%20id%3D%220%22%2F%3E%3CmxCell%20id%3D%221%22%20parent%3D%220%22%2F%3E%3CmxCell%20id%3D%222%22%20value%3D%22nike%20ui%22%20style%3D%22rounded%3D1%3BwhiteSpace%3Dwrap%3Bhtml%3D1%3Bsketch%3D1%3BhachureGap%3D4%3BpointerEvents%3D0%3BfontFamily%3DVerdana%3BfontSize%3D20%3B%22%20vertex%3D%221%22%20parent%3D%221%22%3E%3CmxGeometry%20x%3D%22-180%22%20y%3D%22-1090%22%20width%3D%22120%22%20height%3D%2260%22%20as%3D%22geometry%22%2F%3E%3C%2FmxCell%3E%3C%2Froot%3E%3C%2FmxGraphModel%3E&lt;/span&gt;" style="rounded=1;whiteSpace=wrap;html=1;sketch=1;hachureGap=4;pointerEvents=0;fontFamily=Verdana;fontSize=20;" parent="1" vertex="1">
          <mxGeometry x="-340" y="580" width="120" height="60" as="geometry" />
        </mxCell>
        <mxCell id="pqIi2-kwize-v3Tn6Eei-10" style="edgeStyle=none;curved=1;rounded=0;sketch=1;hachureGap=4;orthogonalLoop=1;jettySize=auto;html=1;fontFamily=Verdana;fontSize=16;endArrow=open;startSize=14;endSize=14;sourcePerimeterSpacing=8;targetPerimeterSpacing=8;entryX=1;entryY=0;entryDx=0;entryDy=27.5;entryPerimeter=0;exitX=0;exitY=1;exitDx=0;exitDy=0;" parent="1" source="pqIi2-kwize-v3Tn6Eei-11" target="pqIi2-kwize-v3Tn6Eei-12" edge="1">
          <mxGeometry relative="1" as="geometry">
            <mxPoint x="247.5" y="650" as="sourcePoint" />
            <mxPoint x="247.5" y="754" as="targetPoint" />
          </mxGeometry>
        </mxCell>
        <mxCell id="pqIi2-kwize-v3Tn6Eei-11" value="transaction service" style="rounded=1;whiteSpace=wrap;html=1;sketch=1;hachureGap=4;pointerEvents=0;fontFamily=Verdana;fontSize=20;" parent="1" vertex="1">
          <mxGeometry x="160" y="590" width="120" height="60" as="geometry" />
        </mxCell>
        <mxCell id="pqIi2-kwize-v3Tn6Eei-12" value="" style="shape=cylinder3;whiteSpace=wrap;html=1;boundedLbl=1;backgroundOutline=1;size=15;sketch=1;hachureGap=4;pointerEvents=0;fontFamily=Verdana;fontSize=20;" parent="1" vertex="1">
          <mxGeometry x="-22.5" y="802" width="60" height="80" as="geometry" />
        </mxCell>
        <mxCell id="pqIi2-kwize-v3Tn6Eei-13" style="edgeStyle=none;curved=1;rounded=0;sketch=1;hachureGap=4;orthogonalLoop=1;jettySize=auto;html=1;entryX=0.5;entryY=1;entryDx=0;entryDy=0;fontFamily=Verdana;fontSize=16;endArrow=open;startSize=14;endSize=14;sourcePerimeterSpacing=8;targetPerimeterSpacing=8;" parent="1" source="pqIi2-kwize-v3Tn6Eei-14" target="pqIi2-kwize-v3Tn6Eei-7" edge="1">
          <mxGeometry relative="1" as="geometry" />
        </mxCell>
        <mxCell id="pqIi2-kwize-v3Tn6Eei-14" value="transaction job producer" style="rounded=1;whiteSpace=wrap;html=1;sketch=1;hachureGap=4;pointerEvents=0;fontFamily=Verdana;fontSize=20;" parent="1" vertex="1">
          <mxGeometry x="-80" y="380" width="130" height="60" as="geometry" />
        </mxCell>
        <mxCell id="pqIi2-kwize-v3Tn6Eei-19" value="" style="endArrow=classic;startArrow=classic;html=1;rounded=0;sketch=1;hachureGap=4;fontFamily=Verdana;fontSize=16;startSize=14;endSize=14;sourcePerimeterSpacing=8;targetPerimeterSpacing=8;curved=1;entryX=0.081;entryY=0.489;entryDx=0;entryDy=0;entryPerimeter=0;" parent="1" source="pqIi2-kwize-v3Tn6Eei-7" edge="1">
          <mxGeometry width="50" height="50" relative="1" as="geometry">
            <mxPoint x="-350.33000000000015" y="162.62999999999988" as="sourcePoint" />
            <mxPoint x="-189.66999999999985" y="80.00000000000023" as="targetPoint" />
          </mxGeometry>
        </mxCell>
        <mxCell id="i2wZYb_ofbVTIxocYbeR-2" value="transaction_service_queue&lt;span style=&quot;color: rgba(0 , 0 , 0 , 0) ; font-family: monospace ; font-size: 0px&quot;&gt;%3CmxGraphModel%3E%3Croot%3E%3CmxCell%20id%3D%220%22%2F%3E%3CmxCell%20id%3D%221%22%20parent%3D%220%22%2F%3E%3CmxCell%20id%3D%222%22%20value%3D%22%22%20style%3D%22endArrow%3Dclassic%3BstartArrow%3Dclassic%3Bhtml%3D1%3Brounded%3D0%3Bsketch%3D1%3BhachureGap%3D4%3BfontFamily%3DVerdana%3BfontSize%3D16%3BstartSize%3D14%3BendSize%3D14%3BsourcePerimeterSpacing%3D8%3BtargetPerimeterSpacing%3D8%3Bcurved%3D1%3BentryX%3D0%3BentryY%3D0.5%3BentryDx%3D0%3BentryDy%3D0%3B%22%20edge%3D%221%22%20parent%3D%221%22%3E%3CmxGeometry%20width%3D%2250%22%20height%3D%2250%22%20relative%3D%221%22%20as%3D%22geometry%22%3E%3CmxPoint%20x%3D%22-220%22%20y%3D%22620%22%20as%3D%22sourcePoint%22%2F%3E%3CmxPoint%20x%3D%22150%22%20y%3D%22620%22%20as%3D%22targetPoint%22%2F%3E%3C%2FmxGeometry%3E%3C%2FmxCell%3E%3C%2Froot%3E%3C%2FmxGraphModel%3E&lt;/span&gt;" style="strokeWidth=2;html=1;shape=mxgraph.flowchart.direct_data;whiteSpace=wrap;" vertex="1" parent="1">
          <mxGeometry x="-202.5" y="590" width="352.5" height="40" as="geometry" />
        </mxCell>
        <mxCell id="i2wZYb_ofbVTIxocYbeR-3" value="validation_service_queue&lt;span style=&quot;color: rgba(0 , 0 , 0 , 0) ; font-family: monospace ; font-size: 0px&quot;&gt;%3CmxGraphModel%3E%3Croot%3E%3CmxCell%20id%3D%220%22%2F%3E%3CmxCell%20id%3D%221%22%20parent%3D%220%22%2F%3E%3CmxCell%20id%3D%222%22%20value%3D%22%22%20style%3D%22endArrow%3Dclassic%3BstartArrow%3Dclassic%3Bhtml%3D1%3Brounded%3D0%3Bsketch%3D1%3BhachureGap%3D4%3BfontFamily%3DVerdana%3BfontSize%3D16%3BstartSize%3D14%3BendSize%3D14%3BsourcePerimeterSpacing%3D8%3BtargetPerimeterSpacing%3D8%3Bcurved%3D1%3BentryX%3D0%3BentryY%3D0.5%3BentryDx%3D0%3BentryDy%3D0%3B%22%20edge%3D%221%22%20parent%3D%221%22%3E%3CmxGeometry%20width%3D%2250%22%20height%3D%2250%22%20relative%3D%221%22%20as%3D%22geometry%22%3E%3CmxPoint%20x%3D%22-220%22%20y%3D%22620%22%20as%3D%22sourcePoint%22%2F%3E%3CmxPoint%20x%3D%22150%22%20y%3D%22620%22%20as%3D%22targetPoint%22%2F%3E%3C%2FmxGeometry%3E%3C%2FmxCell%3E%3C%2Froot%3E%3C%2FmxGraphModel%3E&lt;/span&gt;" style="strokeWidth=2;html=1;shape=mxgraph.flowchart.direct_data;whiteSpace=wrap;rotation=-30;" vertex="1" parent="1">
          <mxGeometry x="-280" y="490" width="192.5" height="40" as="geometry" />
        </mxCell>
        <mxCell id="i2wZYb_ofbVTIxocYbeR-4" value="transaction_service_queue&lt;span style=&quot;color: rgba(0 , 0 , 0 , 0) ; font-family: monospace ; font-size: 0px&quot;&gt;%3CmxGraphModel%3E%3Croot%3E%3CmxCell%20id%3D%220%22%2F%3E%3CmxCell%20id%3D%221%22%20parent%3D%220%22%2F%3E%3CmxCell%20id%3D%222%22%20value%3D%22%22%20style%3D%22endArrow%3Dclassic%3BstartArrow%3Dclassic%3Bhtml%3D1%3Brounded%3D0%3Bsketch%3D1%3BhachureGap%3D4%3BfontFamily%3DVerdana%3BfontSize%3D16%3BstartSize%3D14%3BendSize%3D14%3BsourcePerimeterSpacing%3D8%3BtargetPerimeterSpacing%3D8%3Bcurved%3D1%3BentryX%3D0%3BentryY%3D0.5%3BentryDx%3D0%3BentryDy%3D0%3B%22%20edge%3D%221%22%20parent%3D%221%22%3E%3CmxGeometry%20width%3D%2250%22%20height%3D%2250%22%20relative%3D%221%22%20as%3D%22geometry%22%3E%3CmxPoint%20x%3D%22-220%22%20y%3D%22620%22%20as%3D%22sourcePoint%22%2F%3E%3CmxPoint%20x%3D%22150%22%20y%3D%22620%22%20as%3D%22targetPoint%22%2F%3E%3C%2FmxGeometry%3E%3C%2FmxCell%3E%3C%2Froot%3E%3C%2FmxGraphModel%3E&lt;/span&gt;" style="strokeWidth=2;html=1;shape=mxgraph.flowchart.direct_data;whiteSpace=wrap;rotation=30;" vertex="1" parent="1">
          <mxGeometry x="70" y="475" width="160" height="40" as="geometry" />
        </mxCell>
      </root>
    </mxGraphModel>
  </diagram>
</mxfile>
